<?xml version="1.0" encoding="UTF-8"?><svg width="91" height="22" viewBox="0 0 91 22" xmlns="http://www.w3.org/2000/svg"><path d="M31.7738748 15.9478873c0 .2884751-.1773617.3641309-.1773617.9028062 0 .8079385.514767 1.6642789 2.1680529 1.6642789 1.0711872 0 1.9109681-.4977199 1.9109681-1.3933775 0-1.208259-1.2343659-1.6194513-2.4585798-2.3057151-1.2077916-.6767322-2.405879-1.6201959-2.405879-3.8579995 0-2.60089186 2.3603442-4.16717563 5.6346685-4.1676224 1.3417086.00044677 2.2697224.2242867 3.2880594.87063752.6979512-1.511478 2.4317068-2.58689256 4.3928378-2.58689256 3.0361998 0 4.3650691 1.92103207 4.3650691 3.51322945 0 2.2501646-2.4409631 6.0503798-2.4409631 8.1044053 0 .4670406.3726387.7234959.7505028.7243895 2.2326974-.0008936 4.6400693-5.786627 4.7666709-9.89289075.0047775-.31617576.2243895-.58082217.5205895-.65409512.2028911-.0518272.4598267-.08012366.7593113-.08012366 1.2478024 0 2.5771195.68283836 2.5632351 2.4741535-.0252307 3.21090407-2.2865927 6.07748487-2.2865927 7.63766257 0 .4050862.3584558.8407028 1.0538691.8407028 2.3380992 0 4.1450091-5.452133 4.1450091-9.74589805 0-.4442545.4629619-.79602423 1.5402701-.79602423 1.4187445 0 2.4030423.8197039 2.3168995 2.98691518.116151-.1730552 1.96979-3.3961714 4.808324-3.3961714 1.8555799 0 2.6374345 1.1610486 2.6374345 2.6455705 0 0 1.2040592-2.6455705 4.4029899-2.6455705 1.8539376 0 2.867945 1.1144339 2.8682436 2.93493907 0 2.86062365-2.6075757 5.97159655-2.6075757 7.38716435 0 .4631685.3206844.6368194.6964583.6368194.9610079 0 2.3595977-.8755522 2.8591367-2.2273785.3836865-1.0375867 1.5465404-4.0247998 3.9159915-4.0247998.8129079 0 1.0014667.3374726 1.0014667.6664562 0 .6978802-.7458747.9020615-.7458747 3.3922993 0 1.8748642.5815016 2.6869727 1.5075746 2.6869727 1.2960246 0 3.2628287-2.7087163 3.2628287-6.0764423 0-1.4437154-.824105-2.80537107-2.9000433-2.80537107-1.5453461 0-1.9344073.47240202-2.5602493.47240202-.2051305 0-.6297237-.1408866-.6297237-.62728793 0-.967888 2.4191661-2.4157734 5.172453-2.4157734C89.8959681 6.7902579 91 10.3259756 91 12.3530449c0 5.1593391-4.3580522 9.2602414-8.1231072 9.2602414-2.4111042 0-3.663684-1.1406454-4.3093822-2.4105609-.0008958.0004468-.0017915.0026807-.0028366.0037232-1.1206036 1.2045358-3.1368242 2.4068377-5.415355 2.4068377-2.084896 0-3.2734286-.9464423-3.2734286-2.8250296 0-2.3995402 2.5038161-6.2316261 2.5038161-7.3876112 0-.2883261-.0586727-.4330848-.3196393-.4330848-2.1779064 0-4.9892689 5.7636919-5.412817 9.5298024-.0200055.1770763-.1872152 1.1159232-1.3379762 1.1159232-1.3037878 0-2.5756267-.8021303-2.5756267-2.5655957 0-2.427241 2.6050377-6.5198033 2.6042912-7.6477897.0007465-.2594339-.0864415-.4323402-.3759233-.4323402-1.2728838 0-2.6775946 2.0266225-3.7039935 4.4616078-.703923 1.6697892-1.2249604 3.5321434-1.4127727 5.0646203-.0376222.3076868-.2760453 1.1194975-1.3430522 1.1194975-1.305878 0-2.0708624-.706518-2.4533546-1.5927931-.9510052.8176189-2.1296843 1.5927931-3.4203342 1.5927931-2.37602 0-3.2296853-1.1272418-3.3171718-2.341458 0 0-1.297816 2.341458-4.4267276 2.341458-1.5307153 0-3.0078339-1.2569587-3.0078339-3.915635 0-2.9858727 1.7191248-5.2044644 2.3591498-7.91854213.1922912-.91203972-.5541807-1.43329038-1.3917222-1.43329038-1.0726801 0-1.6016301.7427077-1.6016301 1.9490307 0 1.2937441-.72572 2.3217993-2.4433518 2.3217993-.2872424 0-.6288279-.2190742-.6288279-.6277347 0-.1670981.0546417-.3398554.0546417-.7705574 0-1.0691596-.8671017-1.67693786-1.9414241-1.67693786-.9841485 0-1.4478569.49220953-1.4478569 1.24459763 0 1.2830213 1.3225989 1.7248929 2.6174291 2.3678184 1.2428757.6170118 2.4597742 1.4182486 2.4597742 3.3236431 0 3.294751-2.8925786 5.1358083-6.4843028 5.1358083-1.8303491 0-3.1647423-.4021076-3.9282337-1.2867445-.6854105.6371173-1.7586878 1.2867445-3.2947777 1.2867445-2.6369866 0-2.7307434-2.2796525-2.7307434-2.2796525s-1.240487 2.2796525-4.9777732 2.2796525c-3.061132 0-3.7144442-2.4136884-3.7144442-2.4136884-1.5289237 1.356741-3.8255191 2.4136884-6.97443618 2.4136884C2.65967936 21.6132863 0 18.4607623 0 13.619833 0 8.45289857 4.4698737 0 11.4731237 0 15.230714 0 17.15691 2.2101028 17.15691 4.67889486c0 2.27131252-1.7839185 4.75335923-4.7627892 4.75335923-1.5775937 0-2.0096517-.54135608-2.0096517-.9194862 0-.7151559 1.8004902-1.15598504 1.8004902-3.1660765 0-1.0448842-.6619712-1.7905705-1.5858049-1.7905705-2.57652236 0-6.0146226 5.1855505-6.0146226 9.37104437 0 3.3894697 1.54863058 5.2001455 4.54601383 5.2001455 1.80541697 0 4.35237907-1.3303806 5.00195887-3.2393494.9902696-2.9117062 3.3374758-8.09904388 9.7992352-8.09904388 3.238195 0 4.3699957 1.8258666 4.3699957 2.657038 0 .23009493-.1764659.62713896-.6297237.62713896-.4487789 0-1.0926855-.55148316-2.999324-.55148316-4.3947787 0-6.3106734 3.56490776-6.3106734 6.14539636 0 1.5108823.5535835 2.2385482 1.4714454 2.2385482 1.8634924 0 2.1426729-1.6531092 2.8855617-4.0545855.4111567-1.3285935 1.3706717-2.3532233 2.8933251-2.3532233 1.5089183 0 1.4989155.6655626 1.4975719.7717488-.0017915.1779699-.0764387.4108944-.256637.7733871-.5335782 1.076457-.7781223 2.5664893-.7781223 3.2289244 0 .637713.2512624 1.615877 1.3830631 1.615877 1.5398222 0 1.5631121-2.5678296 3.6860782-2.5678296.4369846 0 .6295744.361599.6295744.6280325" fill="currentColor" fill-rule="evenodd"/></svg>