<svg width="18" height="18" viewBox="0 0 18 18" fill="none" xmlns="http://www.w3.org/2000/svg">
    <path fill-rule="evenodd" clip-rule="evenodd" d="M11.5589 1.19309C12.2066 0.545392 13.2568 0.545392 13.9045 1.19309L16.8069 4.09553C17.4546 4.74323 17.4546 5.79336 16.8069 6.44105L6.44106 16.8069C6.13002 17.1179 5.70816 17.2927 5.26829 17.2927H2.36585C1.44987 17.2927 0.707317 16.5501 0.707317 15.6341V12.7317C0.707317 12.2918 0.882055 11.87 1.19309 11.5589L11.5589 1.19309ZM12.7317 2.36585L15.6341 5.26829L5.26829 15.6341H2.36585V12.7317L12.7317 2.36585Z" fill="#D3D8E1"/>
    <path fill-rule="evenodd" clip-rule="evenodd" d="M11.4123 1.0465C12.141 0.317835 13.3224 0.317835 14.0511 1.0465L16.9535 3.94894C17.6822 4.6776 17.6822 5.85899 16.9535 6.58765L6.58765 16.9535C6.23774 17.3034 5.76315 17.5 5.26829 17.5H2.36585C1.33537 17.5 0.5 16.6646 0.5 15.6341V12.7317C0.5 12.2369 0.69658 11.7623 1.0465 11.4124L11.4123 1.0465ZM13.7579 1.33969C13.1911 0.77295 12.2723 0.77295 11.7055 1.33969L1.33969 11.7055C1.06753 11.9777 0.914634 12.3468 0.914634 12.7317V15.6341C0.914634 16.4356 1.56437 17.0854 2.36585 17.0854H5.26829C5.65318 17.0854 6.0223 16.9325 6.29446 16.6603L16.6603 6.29446C17.2271 5.72772 17.2271 4.80886 16.6603 4.24213L13.7579 1.33969ZM12.7317 2.07266L15.9273 5.26829L14.6479 6.54777L14.8552 6.75508L13.3892 8.22104L13.1819 8.01372L5.35417 15.8415H2.15854V12.6458L11.4522 3.35214L12.7317 2.07266ZM10.2795 5.11128L2.57317 12.8176V15.4268H5.18242L12.8887 7.72053L10.2795 5.11128ZM14.3547 6.25457L11.7454 3.64533L12.7317 2.65904L15.341 5.26829L14.3547 6.25457Z" fill="#D3D8E1"/>
</svg>
